HIERARCHY
ROOT pelvis
{
  OFFSET 0 100 0
  CHANNELS 6 Xposition Yposition Zposition Zrotation Xrotation Yrotation
  JOINT pelvis_right_femur
  {
    OFFSET -10.78128 -3.44521 -0.5502486
    CHANNELS 3 Zrotation Xrotation Yrotation
    JOINT right_femur_tibia
    {
      OFFSET -0.8047443 -44.0398 -0.1307829
      CHANNELS 3 Zrotation Xrotation Yrotation
      JOINT right_tibia_foot
      {
        OFFSET 3.006224 -47.83518 -5
        CHANNELS 3 Zrotation Xrotation Yrotation
        End Site
        {
          OFFSET 0 -5 15
        }
      }
    }
  }
  JOINT pelvis_left_femur
  {
    OFFSET 10.78128 -3.44521 -0.5502486
    CHANNELS 3 Zrotation Xrotation Yrotation
    JOINT left_femur_tibia
    {
      OFFSET 0.8047443 -44.0398 -0.1307829
      CHANNELS 3 Zrotation Xrotation Yrotation
      JOINT left_tibia_foot
      {
        OFFSET -4.370144 -48.10324 -4.275266
        CHANNELS 3 Zrotation Xrotation Yrotation
        End Site
        {
          OFFSET 0 -5 15
        }
      }
    }
  }
  JOINT pelvis_spine1
  {
    OFFSET 0 6.468898 -3.129235
    CHANNELS 3 Zrotation Xrotation Yrotation
    JOINT spine1
    {
      OFFSET 0 23.15396 4.99043
      CHANNELS 3 Zrotation Xrotation Yrotation
      JOINT spine2
      {
        OFFSET 0 20.79997 -5.064912
        CHANNELS 3 Zrotation Xrotation Yrotation
        JOINT neck
        {
          OFFSET 0 14.38658 9.616178
          CHANNELS 3 Zrotation Xrotation Yrotation
          End Site
          {
            OFFSET 0 20 0
          }
        }
      }
      JOINT right_manubrium
      {
        OFFSET -5.722621 16.35077 3.967754
        CHANNELS 3 Zrotation Xrotation Yrotation
        JOINT right_clavicle
        {
          OFFSET -13.16364 1.694482 -4.693211
          CHANNELS 3 Zrotation Xrotation Yrotation
          JOINT right_humerus
          {
            OFFSET -28.5034 -0.3100689 -2.792744
            CHANNELS 3 Zrotation Xrotation Yrotation
            JOINT right_radius
            {
              OFFSET -25.15693 0.02248979 -1.271978
              CHANNELS 3 Zrotation Xrotation Yrotation
              End Site
              {
                OFFSET -15 0 0
              }
            }
          }
        }
      }
      JOINT left_manubrium
      {
        OFFSET 5.722621 16.35077 3.967754
        CHANNELS 3 Zrotation Xrotation Yrotation
        JOINT left_clavicle
        {
          OFFSET 13.16364 1.694482 -4.693211
          CHANNELS 3 Zrotation Xrotation Yrotation
          JOINT left_humerus
          {
            OFFSET 29.39168 -1.063119 -2.237045
            CHANNELS 3 Zrotation Xrotation Yrotation
            JOINT left_radius
            {
              OFFSET 24.59957 -0.9528479 0.9047498
              CHANNELS 3 Zrotation Xrotation Yrotation
              End Site
              {
                OFFSET 15 -0 -0
              }
            }
          }
        }
      }
    }
  }
}
MOTION
Frames: 15
Frame Time: 0.0416666666667
0 103.5113 0 1.075355 -1.267677 0.07241632 2.665454 -16.96078 6.94573 -0 36.1338 -0 -6.042932 -15.47998 -3.265954 -7.081823 12.62153 -23.25918 -0 4.836912 -0 4.608656 -19.39788 24.64692 -1.703096 -2.584434 4.78679 2.800451 9.661023 -7.840954 1.729445 21.16984 5.935375 2.177733 -26.54462 9.89417 4.006809 -20.91428 11.39527 86.37357 32.81723 -17.16005 -0 0 17.2261 -8.402765 7.538462 4.162003 6.882339 -20.09117 0.6305051 -94.15099 20.53483 23.20561 0 0 -8.942708 15.59387 16.84418 -5.585429
0.1687843 104.1677 1.589996 -0.01403737 -0.3164978 -0.01872128 4.426966 -20.87913 8.074862 -0 36.87257 -0 -6.651993 -13.76892 -3.859679 -6.08673 12.54662 -22.82433 -0 6.055983 -0 2.815209 -20.98359 23.70754 -1.662695 -2.435009 4.710734 2.86703 9.674844 -7.907972 1.610843 21.03952 6.199748 2.425158 -26.56091 9.81711 4.156567 -20.50859 11.51302 86.53997 33.15279 -17.54539 -0 0 16.58917 -8.610228 7.88211 4.390305 6.791702 -20.25888 0.5060832 -93.79969 20.60962 22.64044 0 0 -9.904504 15.04389 16.27914 -4.957217
0.4017394 103.9299 4.470637 -0.07204745 -0.6635982 0.0007856809 3.386386 -26.13179 2.989141 -0 24.94436 -0 -6.945119 -7.348596 -2.147339 -6.07405 13.04221 -17.8336 -0 5.533783 -0 3.623244 -21.77592 20.41997 -1.404897 -1.994891 3.349197 3.931266 8.547657 -8.702762 1.155583 19.96067 8.489046 4.043448 -29.05204 11.15712 5.071491 -18.71161 11.68449 87.11443 34.81322 -20.21667 -0 0 14.29012 -6.499587 8.283063 3.860937 7.077225 -20.11475 0.792395 -92.90387 21.86885 19.5615 0 0 -13.63037 14.88101 13.62937 -4.713737
0.6364845 103.8675 7.198208 -0.4115161 1.031358 -0.006114543 4.641407 -28.90974 4.96612 -0 24.72222 -0 -6.363745 -8.677016 -2.664443 -6.00135 12.91801 -18.67347 -0 5.808706 -0 4.174601 -22.47188 21.05377 -1.533426 -2.021668 2.835247 4.394547 7.699925 -8.717132 1.153491 19.69518 9.307897 4.453655 -30.73077 12.38327 5.413067 -18.73165 11.43887 86.47865 35.85405 -20.24627 -0 0 14.69223 -4.030162 7.52931 3.118916 7.235672 -19.13934 1.250409 -93.53114 22.94187 19.96538 0 0 -13.80746 16.17949 13.04242 -5.709764
0.8634439 103.7205 10.27494 -0.7619056 2.79597 0.1037189 5.863681 -32.88411 5.775947 -0 20.43801 -0 -5.769978 -7.758634 -2.755204 -5.920725 13.13667 -18.12549 -0 6.956385 -0 4.479205 -23.48282 20.58572 -1.885323 -1.831829 2.644601 4.596655 7.270525 -8.406321 1.129888 19.73879 9.844394 4.617524 -31.61848 13.25549 5.518889 -18.96918 11.32754 85.70019 37.10661 -19.39554 -0 0 14.91187 -2.347084 6.804934 2.908185 7.165652 -18.2951 1.338887 -93.55404 23.39375 20.36527 0 0 -14.8159 17.58564 12.1419 -6.825795
1.079933 103.4456 13.66811 -0.8931209 3.275046 0.3042654 6.194896 -34.19486 5.623326 -0 17.88125 -0 -5.560043 -6.497281 -2.740404 -5.81957 13.42726 -17.414 -0 7.952931 -0 3.976547 -23.91097 19.7757 -2.183426 -1.569464 2.716816 4.565 7.4125 -8.144797 1.056705 19.88371 9.941595 4.551022 -31.36596 13.27541 5.490558 -18.95956 11.40288 85.50465 37.88501 -18.93789 -0 0 14.33447 -2.244519 6.746356 3.201854 7.077837 -18.28699 0.9859724 -92.68404 23.1146 19.84541 0 0 -16.92506 18.0589 11.30731 -7.149729
1.259881 103.0231 17.76988 -0.8689911 3.04036 0.6791611 5.858275 -34.78248 4.041207 -0 13.76637 -0 -5.574147 -3.568947 -2.505247 -5.67156 14.40125 -15.56687 -0 9.971188 -0 2.631719 -24.04128 17.7928 -2.302085 -1.329635 2.862284 4.386055 7.895547 -8.074425 0.9505121 20.03069 9.791102 4.408032 -30.3799 12.70396 5.23092 -18.71909 11.5958 86.06722 37.83054 -19.15624 -0 0 13.15335 -3.526183 7.154436 3.741111 7.096001 -19.05633 0.4014321 -91.18052 22.21031 18.31245 0 0 -19.56561 17.77827 10.71556 -7.058318
1.403277 102.5469 22.53786 -0.7678752 2.419365 1.185021 5.343907 -34.39249 2.397727 -0 10.75118 -0 -5.758762 -1.027974 -2.372777 -5.532325 15.46828 -13.77643 -0 12.28964 -0 1.188939 -23.67211 15.88689 -2.235999 -1.174448 2.984998 4.15447 8.44628 -8.15652 0.8542322 20.12114 9.557014 4.286948 -29.25041 11.9598 4.811916 -18.41732 11.79247 87.07462 37.14503 -19.82116 -0 0 11.89331 -5.373127 7.709502 4.329091 7.149388 -20.12217 -0.2080489 -89.6939 21.15623 16.55108 0 0 -21.93429 17.04225 10.38795 -6.627831
1.491433 102.1492 28.07816 -0.6617016 1.492932 1.780559 4.920822 -33.17831 0.7121577 -0 8.264392 -0 -6.218814 1.518399 -2.323278 -5.337491 16.75105 -11.75504 -0 16.01252 -0 -0.4717488 -22.52942 13.81397 -2.003649 -1.072745 3.097896 3.852663 9.050656 -8.320176 0.7780087 20.20703 9.268317 4.188693 -28.07359 11.14129 4.174249 -18.17538 11.99057 88.41101 35.87777 -20.6457 -0 0 10.72542 -7.655462 8.264733 4.966553 7.152851 -21.32474 -0.8312343 -88.37549 20.00696 14.86154 0 0 -23.75388 16.00996 10.29693 -5.9901
1.519197 101.9597 34.2819 -0.5855872 0.2425201 2.322264 4.761865 -31.20295 -0.6330935 -0 7.11696 -0 -7.064533 3.344931 -2.366531 -5.112926 17.76615 -9.916272 -0 20.90474 -0 -1.597104 -20.57933 12.32706 -1.633748 -0.9964638 3.24769 3.459003 9.72735 -8.475355 0.7391254 20.33754 8.897247 4.071684 -26.90802 10.29919 3.281478 -18.11972 12.19035 89.94911 34.13108 -21.34138 -0 0 9.811657 -10.21832 8.726061 5.678541 6.99513 -22.49593 -1.490527 -87.3665 18.85001 13.64256 0 0 -24.78246 14.76752 10.42388 -5.131066
1.468498 102.1552 40.98645 -0.6364904 -1.395609 2.629784 5.113216 -28.23234 -1.427131 -0 7.461752 -0 -8.489 4.240145 -2.508242 -4.751844 17.99817 -8.369525 -0 27.91602 -0 -2.038788 -17.63103 11.63022 -1.151349 -0.9174694 3.528669 2.906601 10.57703 -8.498361 0.7666357 20.59698 8.319894 3.823519 -25.68824 9.39834 1.972743 -18.4459 12.3964 91.69464 31.85619 -21.6096 -0 0 9.282391 -13.08617 9.029673 6.562148 6.517611 -23.52877 -2.306898 -86.71217 17.67932 13.33153 0 0 -24.90511 13.30488 10.77914 -3.937127
1.326488 102.8541 47.86629 -0.7736421 -3.512489 2.548754 5.861941 -23.92384 -1.644533 -0 9.05574 -0 -10.42781 3.828448 -2.78333 -4.222341 16.55051 -7.343276 -0 36.73726 -0 -1.669767 -14.06984 12.02549 -0.5852728 -0.8566134 4.029826 2.158825 11.68585 -8.254614 0.9069398 21.02805 7.371193 3.27778 -24.41055 8.439011 0.04791782 -19.43403 12.55665 93.6779 28.9578 -21.22308 -0 0 9.326928 -16.106 9.16298 7.693174 5.55978 -24.27984 -3.466856 -86.43176 16.55078 14.47016 0 0 -24.31694 11.61525 11.34116 -2.195447
1.102315 104.117 54.52251 -0.8996098 -5.885887 2.057047 6.733717 -17.64005 -1.259452 -0 11.20546 -0 -12.40016 1.822331 -3.295715 -3.498439 12.34674 -6.911949 -0 46.5511 -0 -1.007716 -10.28874 13.33772 0.180632 -0.9682075 4.78324 1.24286 13.18873 -7.757906 1.205224 21.48059 5.906528 2.310774 -23.1403 7.408302 -2.651505 -21.36595 12.55905 96.05273 24.9764 -20.36519 -0 0 10.19955 -19.14012 9.473481 9.13673 4.0459 -24.76381 -5.237403 -86.57395 15.55953 17.47476 0 0 -23.53738 9.476795 12.04472 0.6128504
0.8538332 105.7851 60.64427 -0.7907605 -7.886039 1.33762 7.159923 -9.657128 -0.5139561 -0 12.48664 -0 -13.44295 -1.390658 -3.878271 -2.696997 5.046203 -6.826002 -0 54.25492 -0 -0.6112965 -7.116765 15.06818 1.251983 -1.582584 5.646793 0.368997 15.12918 -7.250467 1.638503 21.57494 4.158388 1.146445 -22.11475 6.445171 -5.523452 -24.02554 12.30574 98.41362 19.66432 -19.68947 -0 0 12.0554 -21.8235 10.75384 10.73546 2.40053 -25.22144 -7.592787 -87.46194 14.96353 21.93704 0 0 -22.94717 6.999162 12.77473 4.545584
0.6534312 107.454 66.24148 -0.4249652 -8.918509 0.6183137 6.955885 -1.793007 0.1405963 -0 11.79392 -0 -13.02946 -4.45128 -3.985432 -1.786289 -3.720838 -6.512959 -0 56.20712 -0 -0.5455061 -5.161207 16.54209 2.026788 -2.627874 6.156002 -0.1853154 16.79589 -6.794316 2.01531 21.38366 3.11462 0.573724 -21.48905 5.984162 -6.626607 -25.93544 12.0433 98.91801 15.0003 -19.14504 -0 0 14.15143 -23.66117 12.80318 12.19344 1.77694 -25.64962 -9.394114 -89.34097 15.03059 25.65899 0 0 -21.43315 5.613528 13.65211 7.517203
